Coordinates
version=1
nRows=5
nColumns=63
inDegrees=yes

Units are S.I. units (second, meters, Newtons, ...)
If the header above contains a line with 'inDegrees', this indicates whether rotational values are in degrees (yes) or radians (no).

endheader
time	pelvis_tilt	pelvis_list	pelvis_rotation	pelvis_tx	pelvis_ty	pelvis_tz	hip_flexion_r	hip_adduction_r	hip_rotation_r	knee_angle_r	knee_angle_r_beta	ankle_angle_r	subtalar_angle_r	mtp_angle_r	hip_flexion_l	hip_adduction_l	hip_rotation_l	knee_angle_l	knee_angle_l_beta	ankle_angle_l	subtalar_angle_l	mtp_angle_l	L5_S1_Flex_Ext	L5_S1_Lat_Bending	L5_S1_axial_rotation	L4_L5_Flex_Ext	L4_L5_Lat_Bending	L4_L5_axial_rotation	L3_L4_Flex_Ext	L3_L4_Lat_Bending	L3_L4_axial_rotation	L2_L3_Flex_Ext	L2_L3_Lat_Bending	L2_L3_axial_rotation	L1_L2_Flex_Ext	L1_L2_Lat_Bending	L1_L2_axial_rotation	L1_T12_Flex_Ext	L1_T12_Lat_Bending	L1_T12_axial_rotation	Abs_r3	Abs_r2	Abs_r1	Abs_t1	Abs_t2	neck_flexion	neck_bending	neck_rotation	arm_flex_r	arm_add_r	arm_rot_r	elbow_flex_r	pro_sup_r	wrist_flex_r	wrist_dev_r	arm_flex_l	arm_add_l	arm_rot_l	elbow_flex_l	pro_sup_l	wrist_flex_l	wrist_dev_l
      4.83333333	      6.84779113	     -1.09940923	    174.73486300	      2.53705341	      0.88520123	      0.74680093	     16.61584413	     -3.69671336	     -9.59909975	     25.30303807	      0.44162133	     23.81295267	     -1.57055182	      0.00000000	     10.81965066	     -1.44937038	    -11.45555296	     16.75808238	      0.29248371	     16.31215594	    -15.54710105	      0.00000000	      0.00190118	     -0.27901473	     -0.77996866	      0.00353068	     -0.37108958	     -0.82871670	      0.00312345	     -0.67839640	     -0.82871670	      0.00217286	     -0.67839640	     -0.68247257	      0.00176543	     -0.56896683	     -0.63372453	      0.00108633	     -0.43219381	     -0.58497649	      0.01357993	     -3.15627038	     -4.33795167	      0.00000000	      0.00000000	     -0.00000000	      0.00000000	      0.00000000	      4.65668820	    -12.15886983	     58.95209146	     21.38023013	     58.28218609	      0.00000000	      5.00000084	    -15.09873263	     -7.46874180	      1.72770986	     28.09675950	     59.29873740	      0.00000000	      5.00000084
      4.86666667	      6.88272165	     -1.20579284	    174.82146594	      2.53711487	      0.88473914	      0.74854865	     16.70425681	     -3.98364574	     -9.46449718	     25.35621870	      0.44254950	     23.92654606	     -1.53878464	      0.00000000	     11.02010385	     -1.30735528	    -11.96729007	     16.96455312	      0.29608731	     16.90438666	    -14.83270561	      0.00000000	      0.00435613	     -0.27767173	     -0.81579716	      0.00808976	     -0.36930340	     -0.86678449	      0.00715668	     -0.67513104	     -0.86678449	      0.00497862	     -0.67513104	     -0.71382252	      0.00404510	     -0.56622819	     -0.66283520	      0.00248909	     -0.43011351	     -0.61184787	      0.03111537	     -3.14107814	     -4.53721909	      0.00000000	      0.00000000	     -0.00000000	      0.00000000	      0.00000000	      4.74285705	    -12.42116159	     58.92668234	     21.57127417	     58.13475098	      0.00000000	      5.00000082	    -15.12243361	     -7.27038578	      1.77263042	     28.31400859	     59.14655842	      0.00000000	      5.00000082
      4.90000000	      6.83581473	     -1.59932614	    174.37798818	      2.53718977	      0.88445703	      0.74919394	     16.78243792	     -4.41431346	     -8.67953327	     25.26241816	      0.44091237	     24.30584137	     -1.02690909	      0.00000000	     11.19028171	     -0.96344109	    -12.67670047	     17.37230068	      0.30320385	     17.27895574	    -14.71534546	      0.00000000	      0.00174038	     -0.31440014	     -0.76224707	      0.00323205	     -0.41815218	     -0.80988752	      0.00285926	     -0.76443249	     -0.80988752	      0.00198907	     -0.76443249	     -0.66696619	      0.00161611	     -0.64112476	     -0.61932575	      0.00099445	     -0.48700581	     -0.57168531	      0.01243133	     -3.55655723	     -4.23938956	      0.00000000	      0.00000000	     -0.00000000	      0.00000000	      0.00000000	      4.90809702	    -12.44384629	     59.02794336	     21.59692116	     58.11241458	      0.00000000	      5.00000081	    -15.15951730	     -7.25319031	      1.78977075	     28.43548949	     59.09260833	      0.00000000	      5.00000081
      4.93333333	      6.86670587	     -1.62624986	    174.30468261	      2.53714835	      0.88438657	      0.74995846	     16.91987955	     -4.55462484	     -8.48039556	     25.31869121	      0.44189452	     24.31218951	     -0.91547960	      0.00000000	     11.25903256	     -0.89682498	    -12.74828582	     17.39103669	      0.30353085	     17.48178274	    -14.55326870	      0.00000000	      0.00263330	     -0.30669309	     -0.76728723	      0.00489030	     -0.40790181	     -0.81524268	      0.00432625	     -0.74569357	     -0.81524268	      0.00300960	     -0.74569357	     -0.67137632	      0.00244528	     -0.62540854	     -0.62342087	      0.00150467	     -0.47506759	     -0.57546542	      0.01880939	     -3.46937354	     -4.26742137	      0.00000000	      0.00000000	     -0.00000000	      0.00000000	      0.00000000	      5.02269246	    -12.55777235	     59.03181459	     21.62974335	     58.07414178	      0.00000000	      5.00000080	    -15.19107596	     -7.13304121	      1.82341972	     28.55204324	     59.05111057	      0.00000000	      5.00000080
      4.96666667	      6.83859039	     -1.68603193	    173.72582678	      2.53695597	      0.88439156	      0.74972960	     17.11496483	     -4.58022155	     -7.86580020	     25.52025712	      0.44541251	     24.47925710	     -0.50443941	      0.00000000	     11.15566077	     -0.84322188	    -12.45445638	     17.36008613	      0.30299066	     17.49716098	    -14.92357739	      0.00000000	      0.00226417	     -0.30605520	     -0.66197299	      0.00420478	     -0.40705342	     -0.70334630	      0.00371980	     -0.74414262	     -0.70334630	      0.00258772	     -0.74414262	     -0.57922636	      0.00210251	     -0.62410777	     -0.53785305	      0.00129374	     -0.47407951	     -0.49647974	      0.01617272	     -3.46215765	     -3.68169517	      0.00000000	      0.00000000	     -0.00000000	      0.00000000	      0.00000000	      5.08018233	    -12.63364670	     59.28799913	     21.59381397	     58.08272233	      0.00000000	      5.00000079	    -15.25604509	     -7.11913634	      1.87249879	     28.74661184	     59.00076056	      0.00000000	      5.00000079
